<svg width="28" height="28" viewBox="0 0 28 28" fill="none" xmlns="http://www.w3.org/2000/svg">
<path d="M8.40001 0.666668H19.6C23.8667 0.666668 27.3333 4.13333 27.3333 8.4V19.6C27.3333 21.651 26.5186 23.618 25.0683 25.0683C23.618 26.5186 21.651 27.3333 19.6 27.3333H8.40001C4.13334 27.3333 0.666672 23.8667 0.666672 19.6V8.4C0.666672 6.34899 1.48143 4.38199 2.93171 2.93171C4.38199 1.48143 6.349 0.666668 8.40001 0.666668ZM8.13334 3.33333C6.8603 3.33333 5.6394 3.83905 4.73923 4.73922C3.83905 5.6394 3.33334 6.8603 3.33334 8.13333V19.8667C3.33334 22.52 5.48001 24.6667 8.13334 24.6667H19.8667C21.1397 24.6667 22.3606 24.161 23.2608 23.2608C24.161 22.3606 24.6667 21.1397 24.6667 19.8667V8.13333C24.6667 5.48 22.52 3.33333 19.8667 3.33333H8.13334ZM21 5.33333C21.442 5.33333 21.866 5.50893 22.1785 5.82149C22.4911 6.13405 22.6667 6.55797 22.6667 7C22.6667 7.44203 22.4911 7.86595 22.1785 8.17851C21.866 8.49107 21.442 8.66667 21 8.66667C20.558 8.66667 20.1341 8.49107 19.8215 8.17851C19.5089 7.86595 19.3333 7.44203 19.3333 7C19.3333 6.55797 19.5089 6.13405 19.8215 5.82149C20.1341 5.50893 20.558 5.33333 21 5.33333ZM14 7.33333C15.7681 7.33333 17.4638 8.03571 18.7141 9.28596C19.9643 10.5362 20.6667 12.2319 20.6667 14C20.6667 15.7681 19.9643 17.4638 18.7141 18.714C17.4638 19.9643 15.7681 20.6667 14 20.6667C12.2319 20.6667 10.5362 19.9643 9.28596 18.714C8.03572 17.4638 7.33334 15.7681 7.33334 14C7.33334 12.2319 8.03572 10.5362 9.28596 9.28596C10.5362 8.03571 12.2319 7.33333 14 7.33333ZM14 10C12.9391 10 11.9217 10.4214 11.1716 11.1716C10.4214 11.9217 10 12.9391 10 14C10 15.0609 10.4214 16.0783 11.1716 16.8284C11.9217 17.5786 12.9391 18 14 18C15.0609 18 16.0783 17.5786 16.8284 16.8284C17.5786 16.0783 18 15.0609 18 14C18 12.9391 17.5786 11.9217 16.8284 11.1716C16.0783 10.4214 15.0609 10 14 10Z" fill="white"/>
</svg>
