<svg width="28" height="28" viewBox="0 0 28 28" fill="none" xmlns="http://www.w3.org/2000/svg">
<path d="M14 0.720013C6.66666 0.720013 0.666664 6.70668 0.666664 14.08C0.666664 20.7467 5.54666 26.28 11.92 27.28V17.9467H8.53333V14.08H11.92V11.1333C11.92 7.78668 13.9067 5.94668 16.96 5.94668C18.4133 5.94668 19.9333 6.20001 19.9333 6.20001V9.49335H18.2533C16.6 9.49335 16.08 10.52 16.08 11.5733V14.08H19.7867L19.1867 17.9467H16.08V27.28C19.2219 26.7838 22.0829 25.1807 24.1466 22.7601C26.2102 20.3395 27.3405 17.2609 27.3333 14.08C27.3333 6.70668 21.3333 0.720013 14 0.720013Z" fill="white"/>
</svg>
